Coordinates
version=1
nRows=19
nColumns=63
inDegrees=yes

Units are S.I. units (second, meters, Newtons, ...)
If the header above contains a line with 'inDegrees', this indicates whether rotational values are in degrees (yes) or radians (no).

endheader
time	pelvis_tilt	pelvis_list	pelvis_rotation	pelvis_tx	pelvis_ty	pelvis_tz	hip_flexion_r	hip_adduction_r	hip_rotation_r	knee_angle_r	knee_angle_r_beta	ankle_angle_r	subtalar_angle_r	mtp_angle_r	hip_flexion_l	hip_adduction_l	hip_rotation_l	knee_angle_l	knee_angle_l_beta	ankle_angle_l	subtalar_angle_l	mtp_angle_l	L5_S1_Flex_Ext	L5_S1_Lat_Bending	L5_S1_axial_rotation	L4_L5_Flex_Ext	L4_L5_Lat_Bending	L4_L5_axial_rotation	L3_L4_Flex_Ext	L3_L4_Lat_Bending	L3_L4_axial_rotation	L2_L3_Flex_Ext	L2_L3_Lat_Bending	L2_L3_axial_rotation	L1_L2_Flex_Ext	L1_L2_Lat_Bending	L1_L2_axial_rotation	L1_T12_Flex_Ext	L1_T12_Lat_Bending	L1_T12_axial_rotation	Abs_r3	Abs_r2	Abs_r1	Abs_t1	Abs_t2	neck_flexion	neck_bending	neck_rotation	arm_flex_r	arm_add_r	arm_rot_r	elbow_flex_r	pro_sup_r	wrist_flex_r	wrist_dev_r	arm_flex_l	arm_add_l	arm_rot_l	elbow_flex_l	pro_sup_l	wrist_flex_l	wrist_dev_l
4.627119	4.164650	-8.032784	100.407112	0.140137	0.517134	1.041535	12.138056	0.620413	-7.967622	18.170132	0.317129	26.430588	-4.384824	0.000000	9.839737	-1.619342	0.033235	9.490839	0.165646	26.639518	11.265823	0.000000	-0.135947	0.277538	6.258344	-0.252468	0.369126	6.649490	-0.223348	0.674807	6.649490	-0.155374	0.674807	5.476051	-0.126241	0.565956	5.084904	-0.077680	0.429907	4.693758	-0.971059	3.139570	34.807032	0.000000	0.000000	11.766648	-5.365637	-31.027813	88.128199	-49.875456	62.570862	86.999646	87.614382	-3.275061	10.008638	52.081348	7.557947	148.672076	0.138223	0.867841	-69.437235	-15.572381
4.644068	4.348070	-7.560500	101.545177	0.137080	0.518907	1.039524	10.474183	0.765463	-9.627561	16.663231	0.290828	25.557267	-3.899614	0.000000	8.808417	-1.648949	1.255118	8.689439	0.151659	25.625368	11.041411	0.000000	-0.107949	0.346420	6.003811	-0.200471	0.460739	6.379049	-0.177349	0.842286	6.379049	-0.123374	0.842286	5.253335	-0.100241	0.706420	4.878096	-0.061682	0.536605	4.502858	-0.771066	3.918775	33.391396	0.000000	0.000000	11.490904	-5.508283	-31.110998	91.145940	-50.975005	62.253025	87.325177	87.847667	-4.306862	10.727506	52.241027	7.139156	148.222790	0.140424	0.936003	-69.486537	-15.618421
4.661017	4.535249	-7.060464	102.768438	0.134087	0.520344	1.037570	8.892374	0.953847	-11.300515	15.323409	0.267444	24.821754	-3.375795	0.000000	7.879170	-1.715901	2.588007	8.115750	0.141647	24.727615	10.754871	0.000000	-0.087396	0.412308	5.748345	-0.162304	0.548370	6.107617	-0.143584	1.002486	6.107617	-0.099885	1.002486	5.029802	-0.081156	0.840779	4.670530	-0.049938	0.638665	4.311259	-0.624264	4.664111	31.970570	0.000000	0.000000	11.103994	-5.755199	-31.387496	93.669384	-52.162550	61.643305	87.592238	88.129569	-5.644424	11.267014	52.443208	6.727763	148.024017	0.143216	1.017075	-69.537401	-15.912445
4.677966	4.722079	-6.551897	104.024193	0.131219	0.521457	1.035730	7.439803	1.177601	-12.955241	14.178611	0.247463	24.254089	-2.788315	0.000000	7.061646	-1.819314	3.957231	7.741631	0.135117	23.964863	10.441533	0.000000	-0.074234	0.473672	5.501131	-0.137859	0.629984	5.844952	-0.121958	1.151686	5.844952	-0.084842	1.151686	4.813490	-0.068933	0.965912	4.469669	-0.042417	0.733718	4.125848	-0.530244	5.358274	30.595641	0.000000	0.000000	10.648129	-6.106346	-31.852429	95.603766	-53.467756	60.576957	87.877138	88.457581	-6.988706	11.668167	52.692181	6.343611	147.984714	0.146469	1.106642	-69.585278	-16.429594
4.694915	4.922395	-6.056357	105.309029	0.128449	0.522248	1.034070	6.147206	1.442652	-14.567778	13.216443	0.230670	23.856612	-2.180295	0.000000	6.392373	-1.974525	5.283892	7.571581	0.132149	23.394497	10.213555	0.000000	-0.065823	0.532259	5.255458	-0.122240	0.707904	5.583924	-0.108141	1.294134	5.583924	-0.075229	1.294134	4.598526	-0.061124	1.085382	4.270060	-0.037611	0.824469	3.941594	-0.470169	6.021017	29.229281	0.000000	0.000000	10.186447	-6.556022	-32.385732	96.915423	-54.857929	58.965965	88.189666	88.788768	-8.073296	11.924464	52.976338	5.974834	148.021878	0.150272	1.201746	-69.622927	-17.172056
4.711864	5.117087	-5.588723	106.574304	0.125812	0.522761	1.032605	5.038909	1.722071	-16.108872	12.445375	0.217213	23.647471	-1.543617	0.000000	5.858674	-2.155965	6.532569	7.545799	0.131699	23.027320	10.054012	0.000000	-0.062668	0.585238	5.013882	-0.116381	0.778367	5.327249	-0.102957	1.422949	5.327249	-0.071623	1.422949	4.387146	-0.058194	1.193418	4.073779	-0.035809	0.906534	3.760411	-0.447631	6.620334	27.885705	0.000000	0.000000	9.779157	-7.042069	-32.941578	97.577006	-56.273061	56.745989	88.490774	89.045895	-8.823319	11.960166	53.295321	5.600763	148.188684	0.154547	1.301524	-69.642290	-18.100972
4.728814	5.303760	-5.156473	107.802409	0.123317	0.523042	1.031307	4.110094	2.000670	-17.580513	11.846055	0.206753	23.623325	-0.889144	0.000000	5.449596	-2.351666	7.687458	7.626398	0.133106	22.870984	9.971121	0.000000	-0.064077	0.631773	4.776544	-0.118998	0.840258	5.075078	-0.105273	1.536093	5.075078	-0.073234	1.536093	4.179476	-0.059502	1.288311	3.880942	-0.036614	0.978616	3.582408	-0.457699	7.146742	26.565703	0.000000	0.000000	9.471547	-7.509884	-33.491934	97.532025	-57.638958	53.806154	88.732280	89.153463	-9.137421	11.789515	53.645200	5.202588	148.603032	0.159007	1.401307	-69.638703	-19.185974
4.745763	5.486208	-4.751155	108.942282	0.120973	0.523152	1.030172	3.344221	2.276215	-18.942559	11.401731	0.198998	23.753856	-0.242023	0.000000	5.132679	-2.560132	8.709762	7.771783	0.135643	22.911315	9.958465	0.000000	-0.070203	0.674237	4.545621	-0.130375	0.896736	4.829722	-0.115337	1.639341	4.829722	-0.080235	1.639341	3.977418	-0.065191	1.374905	3.693317	-0.040114	1.044394	3.409216	-0.501455	7.627109	25.281381	0.000000	0.000000	9.254399	-7.959609	-33.983883	96.880517	-58.868580	50.271505	88.820964	89.065616	-9.086899	11.421487	54.004851	4.758801	149.291723	0.163289	1.518313	-69.618310	-20.375100
4.762712	5.643887	-4.386456	109.951455	0.118835	0.523135	1.029152	2.740087	2.524353	-20.158738	11.105728	0.193832	24.016433	0.369038	0.000000	4.886768	-2.759167	9.566970	7.941144	0.138599	23.094815	10.012984	0.000000	-0.078466	0.709398	4.326655	-0.145719	0.943500	4.597071	-0.128912	1.724831	4.597071	-0.089679	1.724831	3.785823	-0.072864	1.446605	3.515407	-0.044836	1.098858	3.244991	-0.560475	8.024855	24.063555	0.000000	0.000000	9.128788	-8.291650	-34.386628	95.627170	-59.907361	46.174894	88.732433	88.811481	-8.745855	10.924021	54.357834	4.255854	150.313324	0.166971	1.636617	-69.592325	-21.609314
4.779661	5.811612	-4.025043	110.866348	0.116801	0.523078	1.028282	2.244387	2.757429	-21.285377	10.938444	0.190912	24.360113	0.924719	0.000000	4.682211	-2.968560	10.317402	8.145020	0.142157	23.383931	10.099661	0.000000	-0.090614	0.745067	4.110235	-0.168280	0.990939	4.367124	-0.148870	1.811557	4.367124	-0.103563	1.811557	3.596455	-0.084144	1.519341	3.339566	-0.051777	1.154109	3.082676	-0.647248	8.428350	22.859893	0.000000	0.000000	9.063784	-8.520247	-34.639797	93.909029	-60.711598	41.728055	88.439964	88.515612	-8.238981	10.356948	54.680734	3.712664	151.583695	0.169750	1.749164	-69.567883	-22.770246
4.796610	5.972508	-3.672546	111.631553	0.114947	0.523016	1.027542	1.855854	2.961553	-22.279208	10.900379	0.190247	24.772181	1.432113	0.000000	4.498489	-3.175514	10.936108	8.360248	0.145914	23.725021	10.196749	0.000000	-0.105475	0.779433	3.910027	-0.195877	1.036646	4.154403	-0.173284	1.895113	4.154403	-0.120547	1.895113	3.421273	-0.097944	1.589419	3.176897	-0.060268	1.207341	2.932520	-0.753395	8.817099	21.746394	0.000000	0.000000	9.037875	-8.644163	-34.785215	91.765843	-61.302550	37.035089	87.988894	88.181098	-7.675980	9.764255	54.965769	3.151011	153.093020	0.171239	1.845870	-69.548085	-23.701741
4.813559	6.116186	-3.330329	112.224464	0.113278	0.522985	1.026917	1.562381	3.122533	-23.141461	10.983301	0.191695	25.237150	1.934258	0.000000	4.319675	-3.363984	11.475637	8.570328	0.149580	24.068034	10.214744	0.000000	-0.121754	0.813173	3.729290	-0.226109	1.081520	3.962370	-0.200030	1.977148	3.962370	-0.139153	1.977148	3.263128	-0.113061	1.658222	3.030048	-0.069570	1.259604	2.796967	-0.869677	9.198771	20.741190	0.000000	0.000000	9.011824	-8.669339	-34.773794	89.276123	-61.697058	32.263339	87.429272	87.819909	-7.137425	9.139358	55.189505	2.578700	154.949156	0.170583	1.920114	-69.535790	-24.017122
4.830508	6.212900	-3.024613	112.593265	0.111885	0.522999	1.026367	1.376056	3.221583	-23.782710	11.177230	0.195079	25.709258	2.369677	0.000000	4.153383	-3.512138	11.790526	8.769148	0.153051	24.387877	10.265593	0.000000	-0.136818	0.842870	3.574057	-0.254084	1.121018	3.797435	-0.224778	2.049355	3.797435	-0.156369	2.049355	3.127300	-0.127049	1.718781	2.903921	-0.078178	1.305606	2.680542	-0.977274	9.534718	19.877831	0.000000	0.000000	8.973609	-8.581710	-34.499450	86.404709	-61.889544	27.394618	86.809307	87.472482	-6.559993	8.417166	55.306506	1.966811	156.899391	0.168138	1.962832	-69.530147	-23.950359
4.847458	6.295703	-2.732481	112.809905	0.110630	0.523074	1.025904	1.253454	3.276837	-24.304075	11.458810	0.199994	26.193988	2.792406	0.000000	3.989944	-3.643486	11.977063	8.961860	0.156414	24.703552	10.350826	0.000000	-0.152491	0.874513	3.435729	-0.283192	1.163102	3.650463	-0.250528	2.126290	3.650463	-0.174282	2.126290	3.006263	-0.141603	1.783306	2.791530	-0.087134	1.354620	2.576797	-1.089230	9.892663	19.108496	0.000000	0.000000	8.896619	-8.491922	-34.053840	83.272176	-61.952512	22.631776	86.297368	87.162661	-6.104807	7.842641	55.295707	1.350968	158.826167	0.164068	1.971926	-69.530584	-23.558222
4.864407	6.352083	-2.467601	112.850877	0.109525	0.523217	1.025438	1.187166	3.273721	-24.733403	11.808077	0.206090	26.687119	3.280211	0.000000	3.815364	-3.735906	12.127561	9.115894	0.159102	24.989464	10.313534	0.000000	-0.166726	0.906072	3.313765	-0.309627	1.205075	3.520875	-0.273914	2.203023	3.520875	-0.190551	2.203023	2.899544	-0.154822	1.847661	2.692434	-0.095267	1.403505	2.485324	-1.190908	10.249664	18.430168	0.000000	0.000000	8.768525	-8.377110	-33.374513	79.802235	-61.860503	17.912393	85.924220	86.908961	-5.727932	7.353564	55.111910	0.705813	160.240448	0.159711	1.936152	-69.534050	-23.480449
4.881356	6.382004	-2.237465	112.746863	0.108552	0.523408	1.024937	1.164121	3.223010	-25.032032	12.193159	0.212811	27.156909	3.732411	0.000000	3.639625	-3.793084	12.167410	9.235042	0.161182	25.284819	10.310865	0.000000	-0.178598	0.936235	3.200112	-0.331675	1.245192	3.400120	-0.293419	2.276362	3.400120	-0.204120	2.276362	2.800098	-0.165846	1.909170	2.600091	-0.102051	1.450228	2.400084	-1.275710	10.590877	17.798066	0.000000	0.000000	8.601108	-8.230067	-32.449245	75.996720	-61.596204	13.268406	85.711232	86.726495	-5.487102	6.945023	54.763677	0.022505	161.073208	0.155619	1.857735	-69.538770	-23.804501
4.898305	6.388225	-2.041825	112.474329	0.107757	0.523639	1.024371	1.174822	3.139528	-25.141262	12.594802	0.219821	27.579938	4.100476	0.000000	3.445877	-3.814809	12.162745	9.297642	0.162274	25.579454	10.221426	0.000000	-0.188623	0.963680	3.102167	-0.350291	1.281694	3.296052	-0.309888	2.343090	3.296052	-0.215577	2.343090	2.714396	-0.175155	1.965135	2.520510	-0.107779	1.492740	2.326625	-1.347313	10.901335	17.253320	0.000000	0.000000	8.403381	-8.063581	-31.367769	71.776396	-61.096611	8.591293	85.648553	86.653936	-5.316568	6.606817	54.304350	-0.661657	161.724215	0.151187	1.749269	-69.546850	-23.969045
4.915254	6.371311	-1.890307	112.090057	0.107089	0.523897	1.023775	1.211245	3.027144	-25.089873	12.980623	0.226555	27.927617	4.338895	0.000000	3.250850	-3.799494	12.117559	9.302690	0.162363	25.867582	10.124777	0.000000	-0.195707	0.987181	3.003092	-0.363447	1.312950	3.190786	-0.321527	2.400231	3.190786	-0.223673	2.400231	2.627706	-0.181733	2.013059	2.440012	-0.111827	1.529143	2.252319	-1.397914	11.167186	16.702298	0.000000	0.000000	8.187878	-7.851146	-30.107729	67.268010	-60.312874	4.068687	85.660283	86.724522	-5.319829	6.226684	53.732394	-1.368669	161.836266	0.147108	1.616380	-69.556159	-24.378447
4.932203	6.337128	-1.778089	111.549757	0.106652	0.524152	1.023160	1.277947	2.905899	-24.780297	13.354809	0.233085	28.189076	4.369004	0.000000	3.046924	-3.761305	12.014138	9.255686	0.161542	26.155565	9.982879	0.000000	-0.202962	1.005857	2.922943	-0.376922	1.337790	3.105627	-0.333447	2.445641	3.105627	-0.231966	2.445641	2.557575	-0.188471	2.051144	2.374891	-0.115973	1.558072	2.192207	-1.449740	11.378455	16.256534	0.000000	0.000000	8.010297	-7.623308	-28.827557	62.483452	-59.226604	-0.306527	85.765409	86.907187	-5.474449	5.852782	53.135082	-2.012413	162.000298	0.142745	1.492246	-69.568266	-24.228700
